
<svg width="128" height="128" viewBox="0 0 128 128" fill="none" xmlns="http://www.w3.org/2000/svg">
  <rect width="128" height="128" rx="24" fill="#F3F4F6"/>
  <path d="M44 52C44 47.5817 47.5817 44 52 44H76C80.4183 44 84 47.5817 84 52V76C84 80.4183 80.4183 84 76 84H52C47.5817 84 44 80.4183 44 76V52Z" fill="#E5E7EB"/>
  <path fill-rule="evenodd" clip-rule="evenodd" d="M54 50C52.3431 50 51 51.3431 51 53V75C51 76.6569 52.3431 78 54 78H74C75.6569 78 77 76.6569 77 75V53C77 51.3431 75.6569 50 74 50H54ZM57 56C56.4477 56 56 56.4477 56 57C56 57.5523 56.4477 58 57 58H71C71.5523 58 72 57.5523 72 57C72 56.4477 71.5523 56 71 56H57ZM56 63C56 62.4477 56.4477 62 57 62H71C71.5523 62 72 62.4477 72 63C72 63.5523 71.5523 64 71 64H57C56.4477 64 56 63.5523 56 63ZM57 68C56.4477 68 56 68.4477 56 69C56 69.5523 56.4477 70 57 70H65C65.5523 70 66 69.5523 66 69C66 68.4477 65.5523 68 65 68H57Z" fill="#1F2937"/>
  <circle cx="64" cy="64" r="48" stroke="#1F2937" stroke-width="4"/>
</svg>
