
<svg width="120" height="120" viewBox="0 0 120 120" fill="none" xmlns="http://www.w3.org/2000/svg">
  <circle cx="60" cy="60" r="60" fill="#F9FAFB"/>
  <path d="M60 100C82.0914 100 100 82.0914 100 60C100 37.9086 82.0914 20 60 20C37.9086 20 20 37.9086 20 60C20 82.0914 37.9086 100 60 100Z" fill="#F3F4F6"/>
  <path d="M39 48C39 43.5817 42.5817 40 47 40H73C77.4183 40 81 43.5817 81 48V72C81 76.4183 77.4183 80 73 80H47C42.5817 80 39 76.4183 39 72V48Z" fill="#E5E7EB"/>
  <path fill-rule="evenodd" clip-rule="evenodd" d="M50 46C48.3431 46 47 47.3431 47 49V71C47 72.6569 48.3431 74 50 74H70C71.6569 74 73 72.6569 73 71V49C73 47.3431 71.6569 46 70 46H50ZM53 52C52.4477 52 52 52.4477 52 53C52 53.5523 52.4477 54 53 54H67C67.5523 54 68 53.5523 68 53C68 52.4477 67.5523 52 67 52H53ZM52 59C52 58.4477 52.4477 58 53 58H67C67.5523 58 68 58.4477 68 59C68 59.5523 67.5523 60 67 60H53C52.4477 60 52 59.5523 52 59ZM53 64C52.4477 64 52 64.4477 52 65C52 65.5523 52.4477 66 53 66H61C61.5523 66 62 65.5523 62 65C62 64.4477 61.5523 64 61 64H53Z" fill="#1F2937"/>
</svg>
